<svg width="150" height="30" viewBox="0 0 150 30" fill="none" xmlns="http://www.w3.org/2000/svg">
<path d="M25.7428 20.2326C25.2777 20.4198 24.8482 20.5829 24.4542 20.7218C24.0667 20.8547 23.7049 20.9635 23.3691 21.048C23.0332 21.1386 22.7199 21.2051 22.4293 21.2474C22.1386 21.2896 21.8576 21.3108 21.5864 21.3108C21.2182 21.3108 20.8952 21.2443 20.6175 21.1114C20.3398 20.9846 20.1072 20.7732 19.9199 20.4772C19.7391 20.1812 19.6034 19.7916 19.513 19.3084C19.4226 18.8251 19.3773 18.2271 19.3773 17.5143V16.717C19.3773 16.3425 19.3773 15.9106 19.3773 15.4213C19.3838 14.926 19.3903 14.4035 19.3967 13.8538C19.4032 13.2981 19.4096 12.7333 19.4161 12.1595C19.429 11.5856 19.4419 11.0329 19.4549 10.5014C19.4678 9.96376 19.4807 9.4624 19.4936 8.99728C19.5065 8.53217 19.5194 8.13651 19.5324 7.81033C19.5647 7.10359 19.6002 6.39988 19.6389 5.69918C19.6842 4.99245 19.7423 4.30082 19.8133 3.62428L19.7358 3.5971C19.626 3.86892 19.4936 4.18001 19.3386 4.53035C19.1836 4.87466 18.9866 5.29145 18.7476 5.78073C18.1792 6.95258 17.5979 8.16672 17.0036 9.42314C16.4158 10.6796 15.8184 11.9632 15.2112 13.2739C14.6105 14.5787 14.0034 15.9046 13.3897 17.2516C12.7761 18.5926 12.1657 19.9336 11.5586 21.2745L11.0838 21.2564C10.9482 20.8457 10.7835 20.3624 10.5897 19.8067C10.3959 19.2449 10.1828 18.6409 9.95026 17.9946C9.71774 17.3422 9.46906 16.6566 9.20424 15.9378C8.94587 15.2129 8.68105 14.482 8.40977 13.7451C8.13848 13.0021 7.86397 12.2622 7.58623 11.5252C7.31495 10.7883 7.05012 10.0785 6.79176 9.39595C6.53985 8.71338 6.29764 8.07309 6.06511 7.47508C5.83904 6.87104 5.63558 6.33343 5.45472 5.86228C5.24803 5.31259 5.06717 4.82634 4.91216 4.4035C4.7636 3.98067 4.63441 3.60616 4.52461 3.27998L4.45679 3.30716C4.45679 3.48837 4.45679 3.66959 4.45679 3.8508C4.46325 4.02597 4.46648 4.21625 4.46648 4.42163V5.91664C4.46648 6.87708 4.45033 7.85865 4.41803 8.86137C4.38574 9.85805 4.34375 10.8426 4.29208 11.8152C4.24041 12.7816 4.17905 13.7179 4.108 14.624C4.03695 15.5301 3.96267 16.3667 3.88516 17.1338C3.82057 17.768 3.7592 18.3087 3.70107 18.7557C3.6494 19.1966 3.58804 19.5681 3.51699 19.8701C3.4524 20.1722 3.37166 20.4108 3.27477 20.5859C3.17788 20.7551 3.05516 20.8849 2.9066 20.9755C2.7645 21.0661 2.58688 21.1235 2.37372 21.1477C2.16703 21.1719 1.91836 21.1839 1.6277 21.1839H1.33704C1.2789 21.1839 1.20785 21.1809 1.12389 21.1749C1.03992 21.1749 0.936572 21.1719 0.813848 21.1658L0.678207 21.0752C0.981785 20.4893 1.24984 19.8369 1.48237 19.1181C1.72135 18.3932 1.92805 17.6261 2.10244 16.8167C2.2833 16.0073 2.43832 15.1706 2.5675 14.3069C2.69668 13.437 2.80326 12.5702 2.88722 11.7064C2.97765 10.8426 3.0487 9.99094 3.10037 9.15131C3.15851 8.31169 3.20049 7.51435 3.22633 6.75929C3.25216 6.00423 3.26831 5.30655 3.27477 4.66626C3.28769 4.02597 3.29415 3.46723 3.29415 2.99003C3.29415 2.68197 3.27154 2.42827 3.22633 2.22893C3.18111 2.0296 3.10037 1.87255 2.98411 1.75778C2.87431 1.63697 2.71929 1.55542 2.51905 1.51314C2.32528 1.46481 2.07338 1.44065 1.76334 1.44065C1.55019 1.44065 1.30474 1.45575 1.027 1.48596C0.749257 1.51012 0.442449 1.54636 0.106575 1.59468L0 0.797342C1.18202 0.543642 2.15411 0.356388 2.91629 0.235578C3.67847 0.108728 4.28562 0.0453035 4.73776 0.0453035C4.97029 0.0453035 5.17052 0.0664452 5.33846 0.108728C5.50639 0.144971 5.65172 0.211417 5.77445 0.308064C5.90363 0.398671 6.01666 0.522501 6.11355 0.679553C6.21044 0.830565 6.3041 1.02084 6.39452 1.25038C6.73686 2.14437 7.09857 3.09574 7.47965 4.1045C7.86074 5.11326 8.24829 6.14316 8.64229 7.1942C9.04276 8.24524 9.43999 9.29931 9.834 10.3564C10.2345 11.4074 10.6188 12.4283 10.987 13.4189C11.1291 13.8115 11.2582 14.1709 11.3745 14.4971C11.4972 14.8173 11.607 15.1163 11.7039 15.3941C11.8073 15.666 11.9009 15.9287 11.9849 16.1824C12.0753 16.4301 12.1593 16.6777 12.2368 16.9254H12.3046C12.408 16.6657 12.5145 16.412 12.6243 16.1643C12.7341 15.9106 12.8504 15.6509 12.9731 15.3851C13.0959 15.1133 13.2283 14.8233 13.3704 14.5153C13.5189 14.2072 13.6836 13.8599 13.8645 13.4733C14.3166 12.5068 14.7849 11.5041 15.2693 10.4651C15.7602 9.42616 16.2608 8.36303 16.7711 7.27575C17.2878 6.18846 17.811 5.08608 18.3407 3.96859C18.8703 2.8511 19.4032 1.73059 19.9393 0.607067C19.9974 0.486258 20.0749 0.38659 20.1718 0.308064C20.2752 0.229538 20.385 0.169133 20.5012 0.12685C20.624 0.0785261 20.7499 0.0453035 20.8791 0.0271821C21.0083 0.00906071 21.1278 0 21.2376 0C21.4249 0 21.6283 0.0241619 21.848 0.0724857C22.074 0.114769 22.2904 0.178194 22.4971 0.262761C22.4002 1.2534 22.313 2.20175 22.2355 3.10782C22.1645 4.01389 22.1031 4.8958 22.0514 5.75355C21.9997 6.6113 21.9545 7.45998 21.9158 8.29961C21.877 9.13319 21.848 9.97584 21.8286 10.8275C21.8092 11.6793 21.7931 12.5491 21.7801 13.437C21.7737 14.325 21.7704 15.2522 21.7704 16.2187C21.7704 16.859 21.7995 17.4056 21.8576 17.8587C21.9158 18.3117 22.0159 18.6832 22.158 18.9731C22.3066 19.257 22.5036 19.4654 22.749 19.5983C22.9944 19.7312 23.3013 19.7976 23.6694 19.7976C23.8051 19.7976 23.9342 19.7946 24.057 19.7886C24.1862 19.7825 24.3186 19.7705 24.4542 19.7523C24.5898 19.7282 24.7384 19.695 24.8999 19.6527C25.0678 19.6104 25.2584 19.556 25.4715 19.4896L25.7428 20.2326Z" fill="black"/>
<path d="M34.4432 11.5886C34.4432 11.1114 34.3593 10.6977 34.1913 10.3473C34.0234 9.99698 33.8038 9.71006 33.5325 9.48656C33.2612 9.26306 32.9544 9.09695 32.6121 8.98822C32.2697 8.87949 31.9274 8.82513 31.5851 8.82513C31.1265 8.82513 30.7389 8.87043 30.4224 8.96104C30.1059 9.05165 29.8476 9.17548 29.6473 9.33253C29.4536 9.48958 29.3115 9.67683 29.221 9.89429C29.1371 10.1057 29.0951 10.3352 29.0951 10.5829C29.0951 10.8728 29.15 11.1658 29.2598 11.4618C29.3761 11.7517 29.544 12.0356 29.7636 12.3135L29.7248 12.4132C29.3567 12.5823 28.9853 12.6669 28.6106 12.6669C28.391 12.6669 28.1843 12.6367 27.9906 12.5763C27.8033 12.5098 27.6385 12.4162 27.4964 12.2954C27.3608 12.1746 27.251 12.0266 27.167 11.8514C27.0895 11.6762 27.0508 11.4799 27.0508 11.2625C27.0508 10.9061 27.1412 10.5708 27.3221 10.2567C27.5094 9.94262 27.7548 9.65569 28.0584 9.39595C28.362 9.13621 28.714 8.90365 29.1145 8.69828C29.5149 8.4929 29.9283 8.32075 30.3546 8.18182C30.7809 8.03685 31.2072 7.92812 31.6335 7.85563C32.0663 7.77711 32.4667 7.73784 32.8349 7.73784C33.5131 7.73784 34.0912 7.82241 34.5692 7.99154C35.0536 8.16068 35.4444 8.40834 35.7415 8.73452C36.0451 9.05467 36.2647 9.44428 36.4003 9.90335C36.5424 10.3624 36.6135 10.8819 36.6135 11.4618C36.6135 11.8605 36.5941 12.2984 36.5554 12.7756C36.5231 13.2528 36.4843 13.7542 36.4391 14.2797C36.3939 14.7992 36.3519 15.3368 36.3131 15.8925C36.2808 16.4482 36.2647 17.0009 36.2647 17.5506C36.2647 18.4204 36.4359 19.0758 36.7782 19.5168C37.127 19.9517 37.5824 20.1691 38.1443 20.1691C38.6417 20.1691 39.1971 19.997 39.8107 19.6527L40.0917 20.0423C39.659 20.447 39.1874 20.7551 38.6772 20.9665C38.1669 21.1779 37.6308 21.2836 37.0689 21.2836C36.649 21.2836 36.2615 21.2172 35.9062 21.0843C35.551 20.9514 35.2442 20.7551 34.9858 20.4953C34.7274 20.2295 34.5272 19.8973 34.3851 19.4986C34.243 19.1 34.1719 18.6379 34.1719 18.1124C34.1719 17.9553 34.1752 17.7982 34.1816 17.6412C34.1946 17.4841 34.2172 17.318 34.2495 17.1429H34.1913C33.9136 17.6623 33.5906 18.1758 33.2225 18.6832C32.8607 19.1845 32.4603 19.6346 32.0211 20.0332C31.5883 20.4259 31.1232 20.743 30.6259 20.9846C30.135 21.2323 29.6183 21.3561 29.0757 21.3561C28.63 21.3561 28.2231 21.2836 27.8549 21.1386C27.4868 20.9937 27.1703 20.7943 26.9054 20.5406C26.6471 20.2869 26.4436 19.9879 26.2951 19.6436C26.153 19.2933 26.0819 18.9127 26.0819 18.502C26.0819 17.9704 26.1852 17.4872 26.3919 17.0522C26.6051 16.6173 26.8958 16.2277 27.2639 15.8834C27.6385 15.5391 28.0842 15.2431 28.601 14.9955C29.1177 14.7418 29.6796 14.5334 30.2868 14.3703C30.8939 14.2011 31.5366 14.0773 32.2148 13.9988C32.893 13.9142 33.5842 13.8719 34.2882 13.8719C34.3334 13.4914 34.3689 13.1229 34.3948 12.7665C34.4271 12.4101 34.4432 12.0175 34.4432 11.5886ZM28.4944 17.8134C28.4944 18.0489 28.5202 18.2754 28.5719 18.4929C28.63 18.7043 28.7172 18.8916 28.8335 19.0547C28.9562 19.2178 29.108 19.3476 29.2889 19.4443C29.4762 19.5349 29.699 19.5802 29.9574 19.5802C30.248 19.5802 30.5484 19.5168 30.8584 19.3899C31.1685 19.2631 31.472 19.0879 31.7692 18.8644C32.0727 18.6409 32.3602 18.3751 32.6314 18.067C32.9092 17.7529 33.1579 17.4117 33.3775 17.0432C33.5971 16.6747 33.7779 16.2881 33.92 15.8834C34.0686 15.4727 34.1655 15.0529 34.2107 14.624C33.7327 14.6361 33.258 14.6663 32.7865 14.7146C32.3149 14.7569 31.866 14.8263 31.4397 14.923C31.0199 15.0196 30.6291 15.1465 30.2674 15.3035C29.9057 15.4606 29.5924 15.6569 29.3276 15.8925C29.0692 16.122 28.8658 16.3969 28.7172 16.717C28.5687 17.0311 28.4944 17.3966 28.4944 17.8134Z" fill="black"/>
<path d="M48.579 11.5977C48.7598 11.2655 48.8503 10.9272 48.8503 10.5829C48.8503 10.3473 48.8051 10.1269 48.7146 9.92147C48.6307 9.71006 48.5015 9.52582 48.3271 9.36877C48.1527 9.20568 47.9331 9.07883 47.6683 8.98822C47.4099 8.89157 47.1063 8.84325 46.7575 8.84325C46.2537 8.84325 45.8016 8.92782 45.4011 9.09695C45.0006 9.26004 44.6454 9.48656 44.3354 9.7765C44.0318 10.0664 43.7702 10.4017 43.5506 10.7822C43.3374 11.1628 43.1598 11.5705 43.0177 12.0054C42.8821 12.4404 42.7819 12.8873 42.7174 13.3464C42.6528 13.7995 42.6205 14.2434 42.6205 14.6783C42.6205 15.4576 42.727 16.1673 42.9402 16.8076C43.1598 17.4419 43.4537 17.9855 43.8219 18.4385C44.19 18.8855 44.6196 19.2329 45.1105 19.4805C45.6013 19.7282 46.1245 19.852 46.68 19.852C47.2678 19.852 47.862 19.7101 48.4627 19.4262C49.0699 19.1362 49.6577 18.6711 50.2261 18.0308C50.2648 18.0489 50.3133 18.0761 50.3714 18.1124C50.436 18.1426 50.4941 18.1788 50.5458 18.2211C50.5975 18.2634 50.6427 18.3056 50.6814 18.3479C50.7202 18.3902 50.7396 18.4295 50.7396 18.4657C50.7396 18.4899 50.7363 18.505 50.7299 18.511L50.7105 18.5473C50.084 19.4956 49.3315 20.2054 48.453 20.6765C47.5746 21.1477 46.6122 21.3833 45.5658 21.3833C44.9974 21.3833 44.4742 21.3078 43.9963 21.1568C43.5183 21.0118 43.0855 20.8094 42.698 20.5497C42.3104 20.2839 41.9681 19.9728 41.671 19.6164C41.3803 19.254 41.1349 18.8644 40.9346 18.4476C40.7409 18.0248 40.5923 17.5838 40.489 17.1247C40.3921 16.6596 40.3436 16.1915 40.3436 15.7203C40.3436 15.0861 40.4179 14.4518 40.5665 13.8176C40.715 13.1773 40.9314 12.5642 41.2156 11.9783C41.5063 11.3863 41.8551 10.8366 42.262 10.3292C42.6754 9.81577 43.1404 9.37179 43.6572 8.99728C44.1803 8.61673 44.7552 8.32075 45.3817 8.10933C46.0083 7.89188 46.6768 7.78315 47.3873 7.78315C47.9169 7.78315 48.4111 7.84355 48.8697 7.96436C49.3283 8.08517 49.7223 8.25732 50.0517 8.48082C50.3875 8.69828 50.6491 8.96406 50.8365 9.27816C51.0302 9.58623 51.1271 9.93054 51.1271 10.3111C51.1271 10.5587 51.0851 10.7792 51.0012 10.9725C50.9237 11.1598 50.8106 11.3229 50.6621 11.4618C50.52 11.5947 50.3488 11.6974 50.1486 11.7699C49.9548 11.8363 49.7416 11.8695 49.5091 11.8695C49.367 11.8695 49.2184 11.8574 49.0634 11.8333C48.9149 11.8031 48.7663 11.7578 48.6178 11.6974L48.579 11.5977Z" fill="black"/>
<path d="M73.5855 19.7976C73.3465 19.9728 73.0526 20.151 72.7038 20.3322C72.3615 20.5074 72.003 20.6675 71.6283 20.8124C71.2537 20.9574 70.8888 21.0752 70.5335 21.1658C70.1783 21.2564 69.8715 21.3017 69.6131 21.3017C69.4387 21.3017 69.2772 21.2866 69.1287 21.2564C68.9866 21.2323 68.8542 21.1688 68.7314 21.0661C68.6152 20.9635 68.5086 20.8124 68.4117 20.6131C68.3213 20.4077 68.2438 20.1299 68.1792 19.7795C68.1146 19.4292 68.0661 18.9943 68.0338 18.4748C68.0015 17.9553 67.9854 17.3241 67.9854 16.5811C67.9854 15.7596 67.9951 15.0227 68.0145 14.3703C68.0339 13.7179 68.0532 13.141 68.0726 12.6397C68.092 12.1383 68.1114 11.7095 68.1307 11.3531C68.1501 10.9906 68.1598 10.6916 68.1598 10.4561C68.1598 10.2688 68.1501 10.0997 68.1307 9.94866C68.1114 9.79764 68.0661 9.67079 67.9951 9.56811C67.924 9.45938 67.8175 9.37783 67.6754 9.32347C67.5333 9.26306 67.3427 9.23286 67.1037 9.23286C66.7226 9.23286 66.2382 9.23588 65.6504 9.24192C65.0691 9.24192 64.3328 9.24494 63.4414 9.25098C63.4027 9.92147 63.3607 10.6403 63.3155 11.4074C63.2767 12.1685 63.238 13.0172 63.1992 13.9535C63.1669 14.8837 63.1346 15.9197 63.1023 17.0613C63.07 18.1969 63.0442 19.4775 63.0248 20.9031L60.9902 21.1386L60.8352 21.1296C60.8868 20.2718 60.9385 19.3386 60.9902 18.3298C61.0419 17.3211 61.0903 16.2942 61.1355 15.2492C61.1872 14.1981 61.2292 13.1592 61.2615 12.1323C61.2938 11.1054 61.3164 10.145 61.3293 9.25098C60.987 9.25702 60.6317 9.26004 60.2635 9.26004C59.9018 9.26004 59.5207 9.26004 59.1203 9.26004H56.4656C56.4914 9.36877 56.5108 9.48052 56.5237 9.59529C56.5366 9.71006 56.5431 9.87919 56.5431 10.1027C56.5431 10.3322 56.5302 10.7551 56.5043 11.3712C56.485 11.9873 56.4527 12.7635 56.4074 13.6998C56.3687 14.63 56.3202 15.7052 56.2621 16.9254C56.2104 18.1456 56.1523 19.4715 56.0877 20.9031L54.1112 21.1386L53.9562 21.1296C54.0079 20.5376 54.0531 19.9154 54.0919 19.2631C54.1371 18.6107 54.1758 17.9553 54.2081 17.2969C54.2469 16.6385 54.2792 15.9952 54.305 15.367C54.3373 14.7388 54.3599 14.1528 54.3728 13.6092C54.3922 13.0595 54.4051 12.5732 54.4116 12.1504C54.4245 11.7215 54.431 11.3802 54.431 11.1265C54.431 10.8064 54.4213 10.5346 54.4019 10.3111C54.3825 10.0815 54.3373 9.88825 54.2662 9.7312C54.1952 9.56811 54.0951 9.43824 53.9659 9.34159C53.8367 9.24494 53.6623 9.16944 53.4427 9.11507C53.2231 9.06071 52.9518 9.02446 52.6289 9.00634C52.3124 8.98218 51.928 8.96708 51.4759 8.96104L51.4565 8.19994C52.0443 8.21202 52.5578 8.22108 52.997 8.22712C53.4427 8.22712 53.827 8.23014 54.15 8.23618C54.4729 8.23618 54.7442 8.23618 54.9638 8.23618C55.1899 8.23618 55.3804 8.23618 55.5355 8.23618H56.0393C58.1514 8.23618 59.9955 8.23316 61.5715 8.22712C63.154 8.21504 64.4975 8.20296 65.602 8.19088C66.713 8.1788 67.5979 8.16974 68.2567 8.1637C68.9155 8.15162 69.3806 8.14558 69.6519 8.14558C69.9425 8.14558 70.1524 8.21202 70.2816 8.34491C70.4108 8.47176 70.4754 8.65298 70.4754 8.88855C70.4754 8.9852 70.4625 9.15735 70.4366 9.40501C70.4173 9.64663 70.3914 9.94262 70.3591 10.293C70.3268 10.6433 70.2881 11.0359 70.2429 11.4709C70.2041 11.9058 70.1686 12.3618 70.1363 12.839C70.104 13.3162 70.0749 13.8085 70.0491 14.3159C70.0297 14.8173 70.02 15.3096 70.02 15.7928C70.02 16.3969 70.0297 16.9163 70.0491 17.3513C70.0749 17.7862 70.1105 18.1516 70.1557 18.4476C70.2073 18.7436 70.2687 18.9822 70.3398 19.1634C70.4108 19.3386 70.498 19.4745 70.6013 19.5711C70.7047 19.6678 70.8242 19.7312 70.9598 19.7614C71.0955 19.7916 71.2473 19.8067 71.4152 19.8067C71.7252 19.8067 72.0417 19.7674 72.3647 19.6889C72.6876 19.6044 73.0332 19.4835 73.4014 19.3265L73.5855 19.7976Z" fill="black"/>
<path d="M84.2624 18.0942C84.3011 18.1124 84.3496 18.1395 84.4077 18.1758C84.4723 18.206 84.5304 18.2422 84.5821 18.2845C84.6338 18.3208 84.679 18.363 84.7177 18.4114C84.7565 18.4536 84.7759 18.4959 84.7759 18.5382C84.7759 18.5624 84.7662 18.5865 84.7468 18.6107C84.3851 19.0818 83.9943 19.4926 83.5745 19.8429C83.1611 20.1873 82.7283 20.4772 82.2762 20.7128C81.8305 20.9423 81.3751 21.1114 80.9101 21.2202C80.445 21.3349 79.9864 21.3923 79.5343 21.3923C78.7592 21.3923 78.0487 21.2443 77.4028 20.9484C76.7569 20.6524 76.2014 20.2477 75.7363 19.7342C75.2713 19.2208 74.9063 18.6198 74.6415 17.9311C74.3832 17.2365 74.254 16.4935 74.254 15.7022C74.254 15.0559 74.3283 14.4095 74.4768 13.7632C74.6318 13.1169 74.8514 12.5008 75.1356 11.9148C75.4263 11.3289 75.7783 10.7853 76.1917 10.2839C76.6051 9.7765 77.0734 9.33857 77.5966 8.9701C78.1262 8.59559 78.7043 8.30263 79.3308 8.09121C79.9638 7.87979 80.642 7.77409 81.3655 7.77409C81.8434 7.77409 82.2988 7.83449 82.7316 7.9553C83.1643 8.07611 83.5422 8.25128 83.8651 8.48082C84.1946 8.70432 84.4561 8.98218 84.6499 9.31441C84.8437 9.64663 84.9406 10.0242 84.9406 10.447C84.9406 11.0631 84.7242 11.6007 84.2914 12.0598C83.8651 12.5189 83.2741 12.9085 82.5184 13.2286C81.7627 13.5488 80.8713 13.8085 79.8443 14.0079C78.8238 14.2011 77.7193 14.3461 76.5308 14.4428V14.5968C76.5308 15.37 76.6342 16.0767 76.8409 16.717C77.054 17.3573 77.3447 17.907 77.7128 18.3661C78.081 18.8191 78.5138 19.1725 79.0111 19.4262C79.5085 19.6799 80.0446 19.8067 80.6194 19.8067C81.2008 19.8067 81.795 19.6738 82.4021 19.408C83.0158 19.1362 83.6358 18.6983 84.2624 18.0942ZM82.4409 10.8185C82.4409 10.5406 82.3892 10.2809 82.2859 10.0393C82.189 9.79764 82.0501 9.58925 81.8693 9.41407C81.6949 9.23286 81.485 9.09091 81.2395 8.98822C80.9941 8.88553 80.7292 8.83419 80.445 8.83419C80.0252 8.83419 79.6441 8.90365 79.3018 9.04259C78.9594 9.18152 78.6526 9.37179 78.3813 9.61341C78.1101 9.84899 77.8711 10.1269 77.6644 10.447C77.4577 10.7611 77.2801 11.0963 77.1315 11.4527C76.9894 11.8091 76.8731 12.1746 76.7827 12.5491C76.6923 12.9236 76.6277 13.289 76.5889 13.6454C77.5061 13.585 78.3264 13.4823 79.0499 13.3374C79.7797 13.1863 80.3934 12.9961 80.8907 12.7665C81.3945 12.531 81.7788 12.2531 82.0437 11.933C82.3085 11.6068 82.4409 11.2353 82.4409 10.8185Z" fill="black"/>
<path d="M85.144 8.81607C85.8675 8.61069 86.4843 8.44458 86.9946 8.31773C87.5048 8.19088 87.9312 8.09121 88.2735 8.01873C88.6223 7.94624 88.8936 7.89792 89.0873 7.87375C89.2876 7.84355 89.4361 7.82845 89.533 7.82845C89.6945 7.82845 89.8463 7.85261 89.9884 7.90094C90.1305 7.94322 90.2532 8.01873 90.3565 8.12745C90.4663 8.23618 90.5503 8.38417 90.6085 8.57143C90.6666 8.75264 90.6956 8.97916 90.6956 9.25098C90.6956 9.34159 90.6892 9.51978 90.6763 9.78556C90.6698 10.0513 90.6537 10.4198 90.6278 10.891C90.602 11.3561 90.5665 11.9299 90.5213 12.6125C90.4825 13.289 90.4308 14.0864 90.3662 15.0045L90.4825 15.0136C90.9863 13.8417 91.5289 12.8058 92.1102 11.9058C92.698 10.9997 93.2922 10.2386 93.8929 9.62247C94.5001 9.00634 95.104 8.54123 95.7047 8.22712C96.3054 7.90698 96.877 7.7469 97.4196 7.7469C97.8588 7.7469 98.2464 7.82543 98.5822 7.98248C98.9181 8.13349 99.2088 8.33887 99.4542 8.59861C99.7061 8.85231 99.916 9.14829 100.084 9.48656C100.252 9.81879 100.388 10.1691 100.491 10.5376C100.594 10.9 100.669 11.2685 100.714 11.643C100.759 12.0175 100.782 12.3679 100.782 12.6941C100.782 13.582 100.685 14.4126 100.491 15.1857C100.297 15.9589 100.032 16.6687 99.6964 17.315C99.3606 17.9553 98.9633 18.5291 98.5047 19.0365C98.0461 19.5439 97.5488 19.9728 97.0127 20.3232C96.483 20.6675 95.9243 20.9302 95.3365 21.1114C94.7552 21.2987 94.1706 21.3923 93.5829 21.3923C92.9563 21.3923 92.346 21.2866 91.7517 21.0752C91.1575 20.8638 90.5988 20.5134 90.0756 20.0242C90.0045 21.5403 89.9335 23.1048 89.8624 24.7176C89.7914 26.3365 89.7526 28.0248 89.7462 29.7825L87.7115 30L87.5081 29.9909C87.605 28.8614 87.6954 27.6744 87.7794 26.4301C87.8633 25.1918 87.9408 23.9474 88.0119 22.6971C88.0829 21.4467 88.1475 20.2175 88.2057 19.0094C88.2638 17.7952 88.3122 16.6566 88.351 15.5935C88.3897 14.5304 88.4188 13.5669 88.4382 12.7031C88.464 11.8333 88.4769 11.1145 88.4769 10.5467C88.4769 10.3171 88.464 10.1178 88.4382 9.94866C88.4124 9.77348 88.3607 9.62851 88.2832 9.51374C88.2121 9.39897 88.1055 9.31441 87.9634 9.26004C87.8213 9.19964 87.634 9.16944 87.4015 9.16944C87.1625 9.16944 86.8719 9.1936 86.5295 9.24192C86.1872 9.29025 85.7738 9.37179 85.2894 9.48656L85.144 8.81607ZM90.1628 19.0365C90.7118 19.4715 91.2576 19.7916 91.8002 19.997C92.3492 20.2024 92.8982 20.305 93.4472 20.305C94.1707 20.305 94.8359 20.1631 95.4431 19.8792C96.0567 19.5892 96.5831 19.1604 97.0224 18.5926C97.468 18.0248 97.8136 17.3241 98.059 16.4905C98.3109 15.6509 98.4369 14.6783 98.4369 13.5729C98.4369 13.1622 98.4014 12.7394 98.3303 12.3044C98.2657 11.8695 98.1592 11.4769 98.0106 11.1265C97.8685 10.7702 97.678 10.4802 97.439 10.2567C97.2064 10.0272 96.9222 9.91241 96.5864 9.91241C96.1924 9.91241 95.8016 10.0091 95.414 10.2024C95.0265 10.3896 94.6486 10.6463 94.2805 10.9725C93.9187 11.2927 93.57 11.6702 93.2341 12.1051C92.8982 12.54 92.5817 13.0021 92.2846 13.4914C91.9875 13.9746 91.7162 14.476 91.4707 14.9955C91.2253 15.5089 91.0089 16.0103 90.8216 16.4995C90.6407 16.9888 90.4922 17.4509 90.3759 17.8858C90.2661 18.3207 90.1951 18.7043 90.1628 19.0365Z" fill="black"/>
<path d="M104.502 21.1386L104.347 21.1296C104.412 20.2537 104.476 19.3355 104.541 18.3751C104.605 17.4147 104.663 16.4663 104.715 15.5301C104.773 14.5938 104.819 13.6937 104.851 12.83C104.883 11.9601 104.899 11.1779 104.899 10.4832C104.899 10.0302 104.828 9.701 104.686 9.49562C104.55 9.2842 104.295 9.1785 103.921 9.1785C103.701 9.1785 103.439 9.20568 103.136 9.26004C102.832 9.31441 102.448 9.39897 101.983 9.51374L101.838 8.86137C102.322 8.69828 102.781 8.55331 103.213 8.42646C103.646 8.29961 104.037 8.1939 104.386 8.10933C104.741 8.02477 105.051 7.96134 105.316 7.91906C105.581 7.87073 105.784 7.84657 105.926 7.84657C106.107 7.84657 106.275 7.87073 106.43 7.91906C106.585 7.96738 106.717 8.04591 106.827 8.15464C106.937 8.26336 107.021 8.40532 107.079 8.58049C107.144 8.75566 107.176 8.97312 107.176 9.23286C107.176 9.48052 107.163 9.79764 107.137 10.1842C107.118 10.5648 107.089 10.9997 107.05 11.489C107.018 11.9722 106.979 12.5008 106.934 13.0746C106.889 13.6484 106.84 14.2495 106.789 14.8777C106.743 15.5059 106.695 16.1522 106.643 16.8167C106.598 17.4811 106.556 18.1486 106.517 18.8191L106.595 18.8372C107.744 17.0009 108.914 15.2008 110.102 13.437C111.297 11.6732 112.515 9.91543 113.755 8.1637L115.935 7.91L116.09 7.91906C116.051 8.26336 116.009 8.65902 115.964 9.10601C115.925 9.54696 115.886 10.0121 115.847 10.5014C115.809 10.9846 115.77 11.486 115.731 12.0054C115.699 12.5189 115.67 13.0233 115.644 13.5186C115.618 14.0079 115.596 14.479 115.576 14.932C115.563 15.379 115.557 15.7838 115.557 16.1462C115.557 16.9073 115.576 17.5264 115.615 18.0036C115.66 18.4748 115.734 18.8463 115.838 19.1181C115.941 19.3839 116.077 19.5651 116.245 19.6617C116.413 19.7584 116.623 19.8067 116.874 19.8067C117.184 19.8067 117.514 19.7614 117.863 19.6708C118.218 19.5802 118.58 19.4564 118.948 19.2993L119.151 19.7614C118.919 19.9366 118.635 20.1148 118.299 20.296C117.963 20.4772 117.604 20.6433 117.223 20.7943C116.849 20.9453 116.471 21.0661 116.09 21.1568C115.709 21.2534 115.36 21.3017 115.043 21.3017C114.714 21.3017 114.446 21.2051 114.239 21.0118C114.032 20.8245 113.871 20.5497 113.755 20.1873C113.638 19.8248 113.558 19.3809 113.512 18.8553C113.467 18.3238 113.445 17.7197 113.445 17.0432C113.445 16.8197 113.448 16.5449 113.454 16.2187C113.467 15.8864 113.48 15.521 113.493 15.1223C113.512 14.7236 113.535 14.3038 113.561 13.8629C113.587 13.4159 113.616 12.9689 113.648 12.5219C113.687 12.0689 113.726 11.6279 113.764 11.199C113.81 10.7641 113.858 10.3594 113.91 9.9849L113.832 9.96678C112.586 11.7548 111.365 13.5548 110.17 15.367C108.975 17.1791 107.783 19.0245 106.595 20.9031L104.502 21.1386Z" fill="black"/>
<path d="M131.795 17.1791C131.795 17.6201 131.798 17.9976 131.805 18.3117C131.818 18.6198 131.85 18.8795 131.902 19.0909C131.953 19.2963 132.034 19.4594 132.144 19.5802C132.26 19.701 132.418 19.7946 132.619 19.8611C132.825 19.9215 133.087 19.9668 133.403 19.997C133.72 20.0211 134.107 20.0423 134.566 20.0604C134.682 20.0664 134.763 20.0846 134.808 20.1148C134.853 20.145 134.876 20.1933 134.876 20.2597C134.876 20.2718 134.873 20.2899 134.866 20.3141C134.866 20.3322 134.863 20.3564 134.857 20.3866C134.631 21.649 134.417 22.9024 134.217 24.1468C134.023 25.3911 133.843 26.6506 133.675 27.9251L132.9 27.8979C132.887 26.7261 132.858 25.5633 132.812 24.4095C132.774 23.2619 132.728 22.1021 132.677 20.9302C132.302 20.9182 131.966 20.9091 131.669 20.9031C131.378 20.9031 131.081 20.9031 130.778 20.9031H130.158C129.324 20.9031 128.517 20.9061 127.735 20.9121C126.954 20.9242 126.243 20.9333 125.604 20.9393C124.964 20.9514 124.422 20.9604 123.976 20.9665C123.531 20.9725 123.227 20.9755 123.065 20.9755C122.755 20.9755 122.494 20.9423 122.281 20.8759C122.074 20.8094 121.906 20.7128 121.777 20.5859C121.654 20.453 121.567 20.293 121.515 20.1057C121.464 19.9185 121.438 19.701 121.438 19.4533C121.438 19.3325 121.447 19.109 121.467 18.7828C121.486 18.4567 121.509 18.061 121.535 17.5959C121.561 17.1247 121.59 16.6022 121.622 16.0284C121.661 15.4485 121.693 14.8475 121.719 14.2253C121.745 13.5971 121.767 12.9659 121.787 12.3316C121.806 11.6913 121.816 11.0752 121.816 10.4832C121.816 10.2899 121.803 10.1148 121.777 9.95772C121.758 9.79462 121.712 9.65569 121.641 9.54093C121.577 9.42616 121.48 9.33857 121.351 9.27816C121.221 9.21172 121.047 9.1785 120.827 9.1785C120.621 9.1785 120.362 9.20568 120.052 9.26004C119.749 9.31441 119.364 9.39897 118.899 9.51374L118.754 8.86137C119.846 8.51102 120.737 8.2543 121.428 8.09121C122.119 7.92812 122.6 7.84657 122.872 7.84657C123.046 7.84657 123.208 7.87073 123.356 7.91906C123.511 7.96134 123.644 8.03685 123.753 8.14558C123.87 8.24826 123.96 8.39022 124.025 8.57143C124.089 8.7466 124.122 8.96406 124.122 9.2238C124.122 9.27816 124.112 9.45938 124.092 9.76744C124.073 10.0755 124.047 10.4681 124.015 10.9453C123.989 11.4225 123.957 11.9632 123.918 12.5672C123.886 13.1712 123.854 13.7964 123.821 14.4428C123.795 15.0891 123.773 15.7384 123.753 16.3908C123.734 17.0372 123.724 17.6412 123.724 18.203C123.724 18.4929 123.734 18.7436 123.753 18.955C123.773 19.1604 123.831 19.3325 123.928 19.4715C124.025 19.6044 124.176 19.704 124.383 19.7705C124.59 19.8309 124.881 19.8611 125.255 19.8611H125.817C125.979 19.8611 126.169 19.8611 126.389 19.8611C126.615 19.855 126.883 19.852 127.193 19.852C127.503 19.852 127.868 19.852 128.288 19.852C128.714 19.846 129.208 19.8429 129.77 19.8429C129.744 19.7161 129.722 19.5832 129.702 19.4443C129.689 19.3053 129.68 19.1543 129.673 18.9912C129.667 18.8281 129.66 18.65 129.654 18.4567C129.654 18.2634 129.654 18.0459 129.654 17.8043C129.654 17.2848 129.66 16.711 129.673 16.0828C129.686 15.4545 129.705 14.7659 129.731 14.0169C129.764 13.2619 129.802 12.4373 129.848 11.5433C129.893 10.6494 129.944 9.67684 130.003 8.62579C130.016 8.37209 130.132 8.18182 130.351 8.05497C130.577 7.92812 130.865 7.86469 131.214 7.86469C131.582 7.86469 131.953 7.95228 132.328 8.12745C132.225 9.16641 132.137 10.1117 132.066 10.9635C132.002 11.8152 131.947 12.6034 131.902 13.3283C131.863 14.0532 131.834 14.7297 131.814 15.3579C131.801 15.9861 131.795 16.5932 131.795 17.1791Z" fill="black"/>
<path d="M144.352 11.5886C144.352 11.1114 144.268 10.6977 144.1 10.3473C143.932 9.99698 143.712 9.71006 143.441 9.48656C143.169 9.26306 142.863 9.09695 142.52 8.98822C142.178 8.87949 141.836 8.82513 141.493 8.82513C141.035 8.82513 140.647 8.87043 140.331 8.96104C140.014 9.05165 139.756 9.17548 139.556 9.33253C139.362 9.48958 139.22 9.67683 139.129 9.89429C139.045 10.1057 139.003 10.3352 139.003 10.5829C139.003 10.8728 139.058 11.1658 139.168 11.4618C139.284 11.7517 139.452 12.0356 139.672 12.3135L139.633 12.4132C139.265 12.5823 138.894 12.6669 138.519 12.6669C138.299 12.6669 138.093 12.6367 137.899 12.5763C137.712 12.5098 137.547 12.4162 137.405 12.2954C137.269 12.1746 137.159 12.0266 137.075 11.8514C136.998 11.6762 136.959 11.4799 136.959 11.2625C136.959 10.9061 137.049 10.5708 137.23 10.2567C137.418 9.94262 137.663 9.65569 137.967 9.39595C138.27 9.13621 138.622 8.90365 139.023 8.69828C139.423 8.4929 139.837 8.32075 140.263 8.18182C140.689 8.03685 141.115 7.92812 141.542 7.85563C141.975 7.77711 142.375 7.73784 142.743 7.73784C143.421 7.73784 143.999 7.82241 144.477 7.99154C144.962 8.16068 145.353 8.40834 145.65 8.73452C145.953 9.05467 146.173 9.44428 146.309 9.90335C146.451 10.3624 146.522 10.8819 146.522 11.4618C146.522 11.8605 146.502 12.2984 146.464 12.7756C146.431 13.2528 146.393 13.7542 146.347 14.2797C146.302 14.7992 146.26 15.3368 146.221 15.8925C146.189 16.4482 146.173 17.0009 146.173 17.5506C146.173 18.4204 146.344 19.0758 146.686 19.5168C147.035 19.9517 147.491 20.1691 148.053 20.1691C148.55 20.1691 149.105 19.997 149.719 19.6527L150 20.0423C149.567 20.447 149.096 20.7551 148.585 20.9665C148.075 21.1779 147.539 21.2836 146.977 21.2836C146.557 21.2836 146.17 21.2172 145.814 21.0843C145.459 20.9514 145.152 20.7551 144.894 20.4953C144.636 20.2295 144.435 19.8973 144.293 19.4986C144.151 19.1 144.08 18.6379 144.08 18.1124C144.08 17.9553 144.083 17.7982 144.09 17.6412C144.103 17.4841 144.125 17.318 144.158 17.1429H144.1C143.822 17.6623 143.499 18.1758 143.131 18.6832C142.769 19.1845 142.369 19.6346 141.929 20.0332C141.497 20.4259 141.032 20.743 140.534 20.9846C140.043 21.2323 139.527 21.3561 138.984 21.3561C138.538 21.3561 138.131 21.2836 137.763 21.1386C137.395 20.9937 137.079 20.7943 136.814 20.5406C136.555 20.2869 136.352 19.9879 136.203 19.6436C136.061 19.2933 135.99 18.9127 135.99 18.502C135.99 17.9704 136.094 17.4872 136.3 17.0522C136.513 16.6173 136.804 16.2277 137.172 15.8834C137.547 15.5391 137.993 15.2431 138.509 14.9955C139.026 14.7418 139.588 14.5334 140.195 14.3703C140.802 14.2011 141.445 14.0773 142.123 13.9988C142.801 13.9142 143.492 13.8719 144.196 13.8719C144.242 13.4914 144.277 13.1229 144.303 12.7665C144.335 12.4101 144.352 12.0175 144.352 11.5886ZM138.403 17.8134C138.403 18.0489 138.429 18.2754 138.48 18.4929C138.538 18.7043 138.626 18.8916 138.742 19.0547C138.864 19.2178 139.016 19.3476 139.197 19.4443C139.384 19.5349 139.607 19.5802 139.866 19.5802C140.156 19.5802 140.457 19.5168 140.767 19.3899C141.077 19.2631 141.38 19.0879 141.677 18.8644C141.981 18.6409 142.268 18.3751 142.54 18.067C142.817 17.7529 143.066 17.4117 143.286 17.0432C143.505 16.6747 143.686 16.2881 143.828 15.8834C143.977 15.4727 144.074 15.0529 144.119 14.624C143.641 14.6361 143.166 14.6663 142.695 14.7146C142.223 14.7569 141.774 14.8263 141.348 14.923C140.928 15.0196 140.537 15.1465 140.176 15.3035C139.814 15.4606 139.501 15.6569 139.236 15.8925C138.978 16.122 138.774 16.3969 138.626 16.717C138.477 17.0311 138.403 17.3966 138.403 17.8134Z" fill="black"/>
</svg>
